# xmcd
#
# Track frame offsets: 
#        182
#        18700
#        36320
#        52110
#        69635
#        85205
#        101732
#        118482
#        136950
#        151592
#        169152
#
# Disc length: 2477 seconds
#
# Revision: 2
# Processed by: cddbd v1.5.2PL0 Copyright (c) Steve Scherf et al.
# Submitted via: ExactAudioCopyFreeDBPlugin 1.0
#
DISCID=9b09ab0b
DTITLE=Phil Vassar - Phil Vassar
DYEAR=2000
DGENRE=Country
TTITLE0=Carlene
TTITLE1=Just Another Day In Paradise
TTITLE2=That's When I Love You
TTITLE3=Rose Bouquet
TTITLE4=Joe and Rosalita
TTITLE5=Six-Pack Summer
TTITLE6=Lucky As Me
TTITLE7=Like I Never Loved Before
TTITLE8=Didn't You Know She's Gone
TTITLE9=Somewhere in Between
TTITLE10=Drive Away
EXTD=
EXTT0=
EXTT1=
EXTT2=
EXTT3=
EXTT4=
EXTT5=
EXTT6=
EXTT7=
EXTT8=
EXTT9=
EXTT10=
PLAYORDER=
